<svg xmlns="http://www.w3.org/2000/svg" width="40" height="40" viewBox="0 0 40 40" fill="none">
<path d="M38.9 9.006C37.9118 5.11482 34.8853 2.08835 30.9941 1.10012C23.7059 -0.0734117 16.2941 -0.0734117 9.00588 1.10012C5.1147 2.08835 2.08823 5.11482 1.1 9.006C-0.0735337 16.2942 -0.0735337 23.706 1.1 30.9942C2.08823 34.8854 5.1147 37.9119 9.00588 38.9001C16.2941 40.0736 23.7059 40.0736 30.9941 38.9001C34.8853 37.9119 37.9118 34.8854 38.9 30.9942C40.0735 23.706 40.0735 16.2942 38.9 9.006Z" fill="#206BC4"/>
<path d="M14.75 27.8442C14.5647 27.8442 14.3794 27.8442 14.3794 27.7824C14.3176 27.7206 14.2559 27.5971 14.1941 27.4118L11.6 19.5059V27.4118C11.6 27.7207 11.4147 27.9059 11.1059 27.9059H8.44999C8.14117 27.9059 7.95587 27.7207 7.95587 27.4118V11.353C7.95587 11.0442 8.14117 10.8589 8.44999 10.8589H11.4147C11.6618 10.8589 11.7853 10.8589 11.847 10.9207C11.9088 10.9824 11.9706 11.1059 12.0323 11.2912L15.2441 21.2971L18.4559 11.2912C18.5176 11.0442 18.5794 10.9207 18.6412 10.9207C18.7029 10.8589 18.8265 10.8589 19.0735 10.8589H22.0382C22.347 10.8589 22.5323 11.0442 22.5323 11.353V27.4118C22.5323 27.7207 22.347 27.9059 22.0382 27.9059H19.3823C19.1353 27.9059 19.0118 27.9059 18.95 27.8442C18.8882 27.7824 18.8882 27.6589 18.8882 27.4736V19.4442L16.2941 27.3501C16.2323 27.5971 16.1706 27.7207 16.1088 27.7207C16.047 27.7824 15.9235 27.7824 15.7382 27.7824H14.75V27.8442Z" fill="white"/>
<path d="M25.9294 11.2912C25.9294 10.9824 26.1147 10.7971 26.4235 10.7971H29.0794C29.3882 10.7971 29.5735 10.9824 29.5735 11.2912V24.8795H34.2059C34.4529 24.8795 34.5764 24.8795 34.6382 24.9412C34.7 25.003 34.7 25.1265 34.7 25.3736V27.3501C34.7 27.5354 34.7 27.7206 34.6382 27.7206C34.5764 27.7824 34.4529 27.7824 34.2059 27.7824H26.4235C26.1147 27.7824 25.9294 27.5971 25.9294 27.2883V11.2912Z" fill="white"/>
</svg>